# xmcd
#
# Track frame offsets: 
#        150
#        23325
#        39875
#        70212
#        90225
#        108900
#        126450
#        143362
#        164325
#
# Disc length: 2453 seconds
#
# Revision: 2
# Processed by: cddbd v1.5.2PL0 Copyright (c) Steve Scherf et al.
# Submitted via: ExactAudioCopy v0.99pb5
#
DISCID=62099309
DTITLE=Son Seals - Chicago Fire
DYEAR=1900
DGENRE=Blues
TTITLE0=Buzzard Luck
TTITLE1=I'm Not Tired
TTITLE2=Leaving Home
TTITLE3=Landlord At My Door
TTITLE4=Gentleman From The Windy City
TTITLE5=Goodbye Little Girl
TTITLE6=Watching Every Move You Make
TTITLE7=Crying Time Again
TTITLE8=Nobody Wants A Loser
EXTD=
EXTT0=
EXTT1=
EXTT2=
EXTT3=
EXTT4=
EXTT5=
EXTT6=
EXTT7=
EXTT8=
PLAYORDER=
